<svg width="100" height="26" viewBox="0 0 100 26" fill="none" xmlns="http://www.w3.org/2000/svg">
<path d="M14.7973 12.3007C14.8081 11.466 15.0298 10.6476 15.4418 9.92167C15.8538 9.19572 16.4428 8.58578 17.1539 8.14861C16.7021 7.50345 16.1062 6.9725 15.4134 6.59795C14.7205 6.2234 13.9499 6.01555 13.1627 5.99093C11.4835 5.81467 9.85552 6.99576 8.99981 6.99576C8.12754 6.99576 6.81004 6.00843 5.39131 6.03762C4.47364 6.06726 3.57929 6.33412 2.79541 6.81218C2.01154 7.29023 1.36486 7.96319 0.918393 8.76548C-1.01561 12.1139 0.426982 17.035 2.27959 19.7416C3.20649 21.0669 4.28977 22.5474 5.70722 22.4949C7.09428 22.4373 7.61232 21.6104 9.28662 21.6104C10.9454 21.6104 11.4314 22.4949 12.8776 22.4615C14.366 22.4373 15.3038 21.1302 16.1981 19.7923C16.8641 18.848 17.3766 17.8043 17.7166 16.6998C16.8518 16.3341 16.1139 15.7219 15.5948 14.9396C15.0757 14.1573 14.7983 13.2395 14.7973 12.3007Z" fill="white"/>
<path d="M12.0656 4.21088C12.8772 3.23667 13.277 1.98449 13.1802 0.720261C11.9403 0.850481 10.7951 1.44304 9.97259 2.37987C9.57045 2.83754 9.26245 3.36997 9.0662 3.94674C8.86996 4.52351 8.78931 5.1333 8.82888 5.74126C9.44902 5.74765 10.0625 5.61323 10.6232 5.34815C11.1838 5.08306 11.6771 4.69421 12.0656 4.21088Z" fill="white"/>
<path d="M32.3307 19.1396H27.5973L26.4606 22.4961H24.4557L28.9391 10.0781H31.0221L35.5055 22.4961H33.4664L32.3307 19.1396ZM28.0875 17.5908H31.8395L29.9899 12.1435H29.9381L28.0875 17.5908Z" fill="white"/>
<path d="M45.1881 17.9697C45.1881 20.7832 43.6823 22.5908 41.4098 22.5908C40.8342 22.6209 40.2617 22.4883 39.7579 22.2082C39.2541 21.928 38.8394 21.5117 38.5612 21.0068H38.5182V25.4912H36.6598V13.4424H38.4586V14.9482H38.4928C38.7838 14.4458 39.2055 14.0316 39.7131 13.7497C40.2208 13.4679 40.7953 13.3289 41.3756 13.3476C43.6735 13.3477 45.1881 15.1641 45.1881 17.9697ZM43.278 17.9697C43.278 16.1367 42.3307 14.9316 40.8854 14.9316C39.4655 14.9316 38.5104 16.1621 38.5104 17.9697C38.5104 19.7939 39.4655 21.0156 40.8854 21.0156C42.3307 21.0156 43.278 19.8193 43.278 17.9697Z" fill="white"/>
<path d="M55.153 17.9697C55.153 20.7832 53.6471 22.5908 51.3747 22.5908C50.799 22.6209 50.2265 22.4883 49.7227 22.2082C49.2189 21.928 48.8042 21.5117 48.526 21.0068H48.483V25.4912H46.6246V13.4424H48.4235V14.9482H48.4576C48.7486 14.4458 49.1703 14.0316 49.678 13.7497C50.1856 13.4679 50.7601 13.3289 51.3405 13.3476C53.6383 13.3476 55.153 15.164 55.153 17.9697ZM53.2428 17.9697C53.2428 16.1367 52.2956 14.9316 50.8502 14.9316C49.4303 14.9316 48.4752 16.1621 48.4752 17.9697C48.4752 19.7939 49.4303 21.0156 50.8502 21.0156C52.2956 21.0156 53.2428 19.8193 53.2428 17.9697H53.2428Z" fill="white"/>
<path d="M61.7389 19.0361C61.8766 20.2676 63.0729 21.0761 64.7077 21.0761C66.2741 21.0761 67.401 20.2675 67.401 19.1572C67.401 18.1933 66.7213 17.6162 65.112 17.2207L63.5026 16.833C61.2223 16.2822 60.1637 15.2158 60.1637 13.4853C60.1637 11.3427 62.0309 9.87103 64.6823 9.87103C67.3063 9.87103 69.1051 11.3427 69.1657 13.4853H67.2897C67.1774 12.246 66.153 11.498 64.6559 11.498C63.1588 11.498 62.1344 12.2548 62.1344 13.3564C62.1344 14.2343 62.7887 14.7509 64.3893 15.1464L65.7574 15.4823C68.3053 16.0849 69.3639 17.1083 69.3639 18.9247C69.3639 21.248 67.5133 22.703 64.5699 22.703C61.816 22.703 59.9567 21.2821 59.8365 19.036L61.7389 19.0361Z" fill="white"/>
<path d="M73.3746 11.2998V13.4424H75.0963V14.914H73.3746V19.9053C73.3746 20.6806 73.7194 21.042 74.4762 21.042C74.6806 21.0384 74.8846 21.0241 75.0875 20.999V22.4619C74.7472 22.5254 74.4014 22.5542 74.0553 22.5478C72.2223 22.5478 71.5074 21.8593 71.5074 20.1035V14.914H70.191V13.4424H71.5074V11.2998H73.3746Z" fill="white"/>
<path d="M76.0934 17.9697C76.0934 15.1211 77.7711 13.3311 80.3873 13.3311C83.0123 13.3311 84.6823 15.1211 84.6823 17.9697C84.6823 20.8262 83.0211 22.6084 80.3873 22.6084C77.7545 22.6084 76.0934 20.8262 76.0934 17.9697ZM82.7887 17.9697C82.7887 16.0156 81.8932 14.8623 80.3873 14.8623C78.8815 14.8623 77.9869 16.0244 77.9869 17.9697C77.9869 19.9316 78.8815 21.0762 80.3873 21.0762C81.8932 21.0762 82.7887 19.9316 82.7887 17.9697H82.7887Z" fill="white"/>
<path d="M86.2145 13.4424H87.9869V14.9834H88.0299C88.1499 14.5021 88.4318 14.0768 88.8284 13.7789C89.225 13.481 89.712 13.3287 90.2077 13.3476C90.4218 13.3469 90.6354 13.3701 90.8444 13.417V15.1552C90.574 15.0726 90.292 15.0347 90.0094 15.0429C89.7394 15.032 89.4703 15.0796 89.2204 15.1825C88.9706 15.2854 88.746 15.4411 88.562 15.639C88.378 15.8369 88.239 16.0722 88.1546 16.3289C88.0702 16.5856 88.0423 16.8575 88.0729 17.1259V22.4961H86.2145L86.2145 13.4424Z" fill="white"/>
<path d="M99.4127 19.8369C99.1627 21.4804 97.5621 22.6084 95.5143 22.6084C92.8805 22.6084 91.2457 20.8437 91.2457 18.0127C91.2457 15.1728 92.8893 13.331 95.4362 13.331C97.941 13.331 99.5162 15.0517 99.5162 17.7969V18.4336H93.1217V18.5459C93.0922 18.8791 93.1339 19.2147 93.2441 19.5306C93.3543 19.8464 93.5304 20.1352 93.7607 20.3778C93.9911 20.6203 94.2704 20.8111 94.5802 20.9374C94.8899 21.0637 95.223 21.1226 95.5573 21.1103C95.9964 21.1515 96.4371 21.0498 96.8138 20.8203C97.1906 20.5909 97.4831 20.246 97.6481 19.8369L99.4127 19.8369ZM93.1305 17.1347H97.6569C97.6735 16.8352 97.6281 16.5353 97.5234 16.2541C97.4188 15.9729 97.2571 15.7164 97.0486 15.5006C96.84 15.2849 96.5892 15.1145 96.3117 15.0003C96.0342 14.8861 95.7361 14.8305 95.4362 14.8369C95.1335 14.8351 94.8335 14.8932 94.5535 15.008C94.2734 15.1227 94.0189 15.2918 93.8045 15.5054C93.5902 15.7191 93.4203 15.973 93.3046 16.2527C93.1889 16.5323 93.1297 16.8321 93.1305 17.1348V17.1347Z" fill="white"/>
<path d="M27.8546 0.730999C28.2442 0.703039 28.6352 0.7619 28.9993 0.903332C29.3634 1.04477 29.6916 1.26525 29.9602 1.54887C30.2288 1.8325 30.4311 2.17219 30.5525 2.54347C30.6739 2.91474 30.7114 3.30832 30.6622 3.69584C30.6622 5.60209 29.632 6.69784 27.8546 6.69784H25.6993V0.730999H27.8546ZM26.6261 5.854H27.7511C28.0295 5.87064 28.3081 5.82499 28.5666 5.72038C28.8252 5.61576 29.0571 5.45482 29.2456 5.24925C29.4341 5.04368 29.5744 4.79868 29.6563 4.53206C29.7381 4.26544 29.7595 3.98392 29.7189 3.708C29.7566 3.43317 29.733 3.15339 29.6499 2.88873C29.5668 2.62407 29.4262 2.38106 29.2381 2.17713C29.05 1.9732 28.8192 1.81339 28.5621 1.70916C28.305 1.60492 28.0281 1.55884 27.7511 1.57421H26.6261V5.854Z" fill="white"/>
<path d="M31.7091 4.44433C31.6808 4.14842 31.7147 3.84985 31.8085 3.56778C31.9024 3.28571 32.0541 3.02637 32.2541 2.80639C32.454 2.5864 32.6977 2.41064 32.9696 2.29036C33.2414 2.17009 33.5354 2.10796 33.8327 2.10796C34.1299 2.10796 34.4239 2.17009 34.6958 2.29036C34.9676 2.41064 35.2113 2.5864 35.4113 2.80639C35.6112 3.02637 35.763 3.28571 35.8568 3.56778C35.9507 3.84985 35.9845 4.14842 35.9562 4.44433C35.9851 4.74056 35.9516 5.03954 35.858 5.32206C35.7644 5.60459 35.6128 5.86441 35.4128 6.08482C35.2128 6.30523 34.9689 6.48137 34.6968 6.6019C34.4246 6.72244 34.1303 6.78471 33.8327 6.78471C33.5351 6.78471 33.2407 6.72244 32.9686 6.6019C32.6965 6.48137 32.4526 6.30523 32.2526 6.08482C32.0526 5.86441 31.9009 5.60459 31.8073 5.32206C31.7137 5.03954 31.6803 4.74056 31.7091 4.44433ZM35.0421 4.44433C35.0421 3.46826 34.6037 2.89746 33.8341 2.89746C33.0617 2.89746 32.6271 3.46826 32.6271 4.44434C32.6271 5.42823 33.0617 5.99463 33.8341 5.99463C34.6037 5.99462 35.0422 5.42431 35.0422 4.44433H35.0421Z" fill="white"/>
<path d="M41.6017 6.69775H40.6798L39.7491 3.38134H39.6788L38.7521 6.69775H37.839L36.5978 2.19482H37.4991L38.3058 5.63082H38.3722L39.298 2.19482H40.1505L41.0763 5.63082H41.1466L41.9493 2.19482H42.838L41.6017 6.69775Z" fill="white"/>
<path d="M43.882 2.19482H44.7374V2.91015H44.8038C44.9165 2.65323 45.1065 2.43786 45.3474 2.29405C45.5882 2.15025 45.868 2.08517 46.1476 2.1079C46.3667 2.09143 46.5867 2.12447 46.7913 2.20456C46.9959 2.28466 47.1798 2.40976 47.3295 2.57061C47.4792 2.73145 47.5908 2.92391 47.656 3.13373C47.7212 3.34355 47.7383 3.56535 47.7062 3.7827V6.6977H46.8175V4.00586C46.8175 3.28223 46.5031 2.92236 45.8458 2.92236C45.6971 2.91543 45.5486 2.94075 45.4105 2.99658C45.2725 3.05241 45.1481 3.13743 45.046 3.24582C44.9439 3.3542 44.8664 3.48339 44.8188 3.62452C44.7713 3.76565 44.7549 3.91539 44.7706 4.06347V6.69775H43.882L43.882 2.19482Z" fill="white"/>
<path d="M49.1222 0.436996H50.0109V6.69774H49.1222V0.436996Z" fill="white"/>
<path d="M51.2462 4.44434C51.2179 4.1484 51.2518 3.84982 51.3457 3.56774C51.4395 3.28566 51.5913 3.02631 51.7913 2.80632C51.9912 2.58633 52.235 2.41057 52.5068 2.29029C52.7787 2.17001 53.0727 2.10788 53.37 2.10788C53.6673 2.10788 53.9613 2.17001 54.2332 2.29029C54.505 2.41057 54.7488 2.58633 54.9487 2.80632C55.1487 3.02631 55.3005 3.28566 55.3943 3.56774C55.4882 3.84982 55.5221 4.1484 55.4938 4.44434C55.5226 4.74058 55.4891 5.03956 55.3955 5.32208C55.3019 5.60461 55.1502 5.86442 54.9502 6.08483C54.7502 6.30524 54.5062 6.48136 54.2341 6.60189C53.962 6.72242 53.6676 6.78469 53.37 6.78469C53.0724 6.78469 52.778 6.72242 52.5059 6.60189C52.2338 6.48136 51.9899 6.30524 51.7898 6.08483C51.5898 5.86442 51.4381 5.60461 51.3445 5.32208C51.2509 5.03956 51.2174 4.74058 51.2462 4.44434ZM54.5792 4.44434C54.5792 3.46827 54.1407 2.89747 53.3712 2.89747C52.5988 2.89747 52.1642 3.46827 52.1642 4.44435C52.1642 5.42824 52.5988 5.99464 53.3712 5.99464C54.1408 5.99463 54.5792 5.42432 54.5792 4.44434H54.5792Z" fill="white"/>
<path d="M56.4293 5.42431C56.4293 4.61376 57.0328 4.14648 58.1041 4.08007L59.3239 4.00976V3.62109C59.3239 3.1455 59.0094 2.87695 58.402 2.87695C57.9059 2.87695 57.5621 3.05908 57.4635 3.37744H56.6031C56.694 2.604 57.4215 2.10791 58.443 2.10791C59.5719 2.10791 60.2086 2.66991 60.2086 3.62109V6.69775H59.3531V6.06494H59.2828C59.1401 6.29193 58.9397 6.47698 58.7021 6.60119C58.4645 6.7254 58.1981 6.78432 57.9303 6.77194C57.7413 6.7916 57.5502 6.77144 57.3694 6.71274C57.1887 6.65404 57.0222 6.55811 56.8808 6.43114C56.7394 6.30417 56.6262 6.14898 56.5484 5.97556C56.4706 5.80215 56.4301 5.61436 56.4293 5.42431ZM59.3239 5.03954V4.66308L58.2242 4.73339C57.6041 4.77489 57.3229 4.98583 57.3229 5.3828C57.3229 5.78807 57.6744 6.02391 58.1579 6.02391C58.2995 6.03825 58.4426 6.02395 58.5786 5.98186C58.7146 5.93977 58.8408 5.87075 58.9495 5.77891C59.0583 5.68706 59.1475 5.57428 59.2118 5.44726C59.2761 5.32024 59.3142 5.18158 59.3239 5.03954Z" fill="white"/>
<path d="M61.3766 4.44434C61.3766 3.02149 62.108 2.12012 63.2457 2.12012C63.5271 2.10715 63.8064 2.17455 64.051 2.31445C64.2955 2.45434 64.4951 2.66095 64.6266 2.91012H64.693V0.436996H65.5817V6.69774H64.7301V5.98631H64.6598C64.5182 6.2338 64.3116 6.43783 64.0623 6.57631C63.8131 6.7148 63.5307 6.78245 63.2457 6.77195C62.1002 6.772 61.3766 5.87061 61.3766 4.44434ZM62.2946 4.44434C62.2946 5.39942 62.7448 5.97413 63.4977 5.97413C64.2467 5.97413 64.7096 5.39113 64.7096 4.44825C64.7096 3.50977 64.2419 2.91846 63.4977 2.91846C62.7496 2.91846 62.2946 3.49707 62.2946 4.44434H62.2946Z" fill="white"/>
<path d="M69.2585 4.44433C69.2301 4.14842 69.264 3.84985 69.3578 3.56778C69.4517 3.28571 69.6034 3.02637 69.8034 2.80639C70.0033 2.5864 70.247 2.41064 70.5189 2.29036C70.7907 2.17009 71.0847 2.10796 71.382 2.10796C71.6793 2.10796 71.9732 2.17009 72.2451 2.29036C72.517 2.41064 72.7607 2.5864 72.9606 2.80639C73.1605 3.02637 73.3123 3.28571 73.4061 3.56778C73.5 3.84985 73.5338 4.14842 73.5055 4.44433C73.5344 4.74056 73.5009 5.03954 73.4073 5.32206C73.3137 5.60459 73.1621 5.86441 72.9621 6.08482C72.7621 6.30523 72.5182 6.48137 72.2461 6.6019C71.9739 6.72244 71.6796 6.78471 71.382 6.78471C71.0844 6.78471 70.79 6.72244 70.5179 6.6019C70.2458 6.48137 70.0019 6.30523 69.8019 6.08482C69.6019 5.86441 69.4502 5.60459 69.3566 5.32206C69.2631 5.03954 69.2296 4.74056 69.2585 4.44433ZM72.5915 4.44433C72.5915 3.46826 72.153 2.89746 71.3835 2.89746C70.611 2.89746 70.1765 3.46826 70.1765 4.44434C70.1765 5.42823 70.611 5.99463 71.3835 5.99463C72.153 5.99462 72.5915 5.42431 72.5915 4.44433Z" fill="white"/>
<path d="M74.6979 2.19482H75.5533V2.91015H75.6198C75.7324 2.65323 75.9224 2.43786 76.1633 2.29405C76.4042 2.15025 76.6839 2.08517 76.9635 2.1079C77.1826 2.09143 77.4026 2.12447 77.6072 2.20456C77.8118 2.28466 77.9958 2.40976 78.1454 2.57061C78.2951 2.73145 78.4067 2.92391 78.4719 3.13373C78.5371 3.34355 78.5543 3.56535 78.5221 3.7827V6.6977H77.6334V4.00586C77.6334 3.28223 77.319 2.92236 76.6618 2.92236C76.513 2.91543 76.3645 2.94075 76.2264 2.99658C76.0884 3.05241 75.964 3.13743 75.8619 3.24582C75.7598 3.3542 75.6823 3.48339 75.6348 3.62452C75.5872 3.76565 75.5708 3.91539 75.5865 4.06347V6.69775H74.6979V2.19482Z" fill="white"/>
<path d="M83.5436 1.07373V2.21533H84.5192V2.96387H83.5436V5.2793C83.5436 5.75098 83.7379 5.95752 84.1803 5.95752C84.2936 5.95716 84.4067 5.95031 84.5192 5.93701V6.67724C84.3596 6.70579 84.1979 6.72098 84.0358 6.72265C83.0475 6.72265 82.6539 6.37499 82.6539 5.50683V2.96383H81.9391V2.21529H82.6539V1.07373H83.5436Z" fill="white"/>
<path d="M85.733 0.436996H86.6139V2.91845H86.6842C86.8023 2.65913 86.9976 2.44253 87.2432 2.29819C87.4889 2.15384 87.7732 2.08876 88.0572 2.11181C88.2752 2.09995 88.493 2.13634 88.6953 2.21838C88.8976 2.30042 89.0793 2.42609 89.2274 2.58643C89.3755 2.74677 89.4864 2.93782 89.5522 3.14595C89.618 3.35409 89.637 3.57418 89.608 3.79052V6.69775H88.7184V4.00975C88.7184 3.29051 88.3834 2.92625 87.7555 2.92625C87.6028 2.91372 87.4492 2.93472 87.3054 2.98777C87.1616 3.04082 87.0312 3.12465 86.9232 3.23339C86.8152 3.34213 86.7322 3.47315 86.6802 3.61729C86.6281 3.76142 86.6082 3.9152 86.6217 4.06785V6.69773H85.7331L85.733 0.436996Z" fill="white"/>
<path d="M94.7897 5.48193C94.669 5.89347 94.4074 6.24945 94.0507 6.4876C93.694 6.72575 93.2649 6.8309 92.8385 6.78466C92.5419 6.79249 92.2471 6.73567 91.9746 6.61814C91.7021 6.50061 91.4584 6.32519 91.2605 6.10405C91.0626 5.88292 90.9152 5.62136 90.8285 5.33754C90.7418 5.05372 90.7179 4.75443 90.7585 4.46045C90.719 4.16556 90.7433 3.86563 90.8298 3.58096C90.9162 3.29629 91.0629 3.03352 91.2598 2.81045C91.4566 2.58737 91.6991 2.4092 91.9708 2.28799C92.2425 2.16679 92.5371 2.10537 92.8346 2.10791C94.0876 2.10791 94.8434 2.96391 94.8434 4.37791V4.688H91.6637V4.7378C91.6498 4.90304 91.6706 5.06938 91.7247 5.22613C91.7788 5.38287 91.8651 5.52658 91.978 5.64804C92.0909 5.7695 92.228 5.86602 92.3804 5.93141C92.5328 5.99681 92.6971 6.02964 92.8629 6.0278C93.0755 6.05332 93.2909 6.01504 93.4816 5.91783C93.6724 5.82063 93.8299 5.66888 93.9342 5.4819L94.7897 5.48193ZM91.6637 4.03076H93.9381C93.9493 3.87963 93.9288 3.72783 93.8778 3.58511C93.8269 3.4424 93.7466 3.31192 93.6422 3.20206C93.5378 3.0922 93.4116 3.0054 93.2717 2.94722C93.1318 2.88904 92.9812 2.86079 92.8297 2.86426C92.676 2.86233 92.5235 2.89119 92.3811 2.94913C92.2387 3.00708 92.1094 3.09293 92.0008 3.20165C91.8921 3.31036 91.8063 3.43973 91.7484 3.58212C91.6905 3.72452 91.6617 3.87706 91.6637 4.03076H91.6637Z" fill="white"/>
</svg>
